<?xml version="1.0" standalone="no"?>
<!DOCTYPE svg PUBLIC "-//W3C//DTD SVG 20010904//EN"
 "http://www.w3.org/TR/2001/REC-SVG-20010904/DTD/svg10.dtd">
<svg version="1.0" xmlns="http://www.w3.org/2000/svg"
 width="315.000000pt" height="173.000000pt" viewBox="0 0 315.000000 173.000000"
 preserveAspectRatio="xMidYMid meet">
<metadata>
Created by potrace 1.16, written by Peter Selinger 2001-2019
</metadata>
<g transform="translate(0.000000,173.000000) scale(0.100000,-0.100000)"
fill="#000000" stroke="none">
<path d="M1987 1723 c-11 -10 -8 -123 3 -124 40 -5 80 -6 108 -2 31 5 32 7 32
50 0 71 -11 83 -79 83 -32 0 -61 -3 -64 -7z"/>
<path d="M1385 1691 c-44 -10 -102 -27 -130 -38 -27 -11 -57 -18 -65 -15 -8 3
-12 1 -8 -3 4 -4 -15 -19 -42 -33 -27 -14 -66 -43 -87 -66 l-38 -41 40 36 c44
40 79 61 110 66 11 2 58 15 105 29 105 32 245 54 308 48 130 -13 209 -30 287
-65 22 -10 54 -21 70 -24 24 -5 21 -2 -16 17 -115 58 -189 84 -284 98 -97 13
-157 11 -250 -9z"/>
<path d="M1475 1604 c-102 -12 -169 -28 -200 -50 -20 -13 -40 -24 -46 -24 -24
0 -114 -55 -152 -93 -23 -23 -46 -42 -52 -42 -5 0 -23 -24 -40 -54 -24 -43
-36 -55 -58 -57 -24 -2 -27 0 -21 14 4 9 8 28 9 42 3 44 16 78 30 76 8 0 14 3
13 7 0 5 13 23 29 40 l28 32 -35 -32 c-43 -39 -47 -40 -53 -10 -4 21 -4 21 -6
-3 -1 -14 -6 -32 -11 -40 -8 -12 -10 -12 -10 5 -1 18 -2 18 -11 3 -9 -16 -11
-16 -29 0 -11 9 -21 23 -21 32 -1 8 -5 2 -9 -15 -7 -28 -8 -28 -9 -5 -1 20 -3
22 -11 10 -7 -12 -31 -14 -127 -12 l-119 3 -1 -28 c0 -15 1 -20 4 -10 4 15 19
17 123 17 l118 0 7 -50 c4 -27 10 -50 14 -50 4 0 18 14 30 31 21 28 25 29 38
16 13 -13 13 -19 1 -43 -12 -27 -17 -29 -75 -29 -35 -1 -66 -4 -69 -8 -4 -4
23 -7 60 -7 59 0 67 -2 64 -17 -4 -22 -38 -30 -49 -11 -6 10 -9 10 -9 1 0 -15
-186 -19 -192 -5 -1 5 -20 12 -41 15 -28 4 -39 2 -44 -9 -4 -11 -39 -14 -199
-14 -120 0 -194 -4 -194 -10 0 -6 71 -7 200 -3 l200 6 1 -44 c1 -24 3 -36 6
-27 2 9 12 19 21 21 15 4 15 5 0 6 -11 1 -18 9 -18 21 0 19 7 20 125 20 l125
0 0 -55 c0 -60 10 -70 27 -27 l11 27 2 -25 c1 -17 6 -9 13 25 11 44 16 50 40
53 30 4 35 -9 12 -31 -9 -10 -11 -17 -4 -19 7 -2 9 -23 3 -63 -6 -46 -9 -54
-14 -35 -6 24 -7 24 -17 5 -6 -11 -11 -57 -11 -103 0 -46 -2 -86 -5 -89 -3 -3
-2 -16 3 -29 6 -15 6 -24 0 -24 -6 0 -10 9 -10 20 0 27 -42 44 -52 21 -4 -9
-6 -27 -6 -41 0 -23 1 -22 8 5 7 29 8 29 9 4 0 -14 10 -43 21 -65 15 -31 19
-35 20 -16 0 12 7 25 15 28 8 4 15 13 15 20 0 12 4 12 23 -1 20 -13 57 -98 57
-132 0 -12 -67 -33 -107 -33 -16 0 -34 5 -41 12 -9 9 -12 8 -12 -8 0 -13 10
-24 28 -31 21 -9 -5 -11 -127 -12 -85 -1 -152 -4 -149 -7 4 -3 57 -5 120 -5
100 1 119 -2 163 -23 l50 -24 -142 0 c-117 0 -143 2 -143 14 0 10 -13 14 -45
14 -33 0 -45 -4 -45 -15 0 -13 -29 -15 -200 -15 -171 0 -200 2 -200 15 0 12
17 15 88 16 103 1 180 6 233 13 22 3 39 1 39 -4 0 -10 32 -6 57 9 13 7 -45 10
-199 11 -171 0 -218 -3 -218 -13 0 -15 -36 -48 -44 -40 -3 3 0 -6 7 -20 12
-26 33 -27 23 0 -3 8 -2 12 3 8 5 -3 12 -24 16 -46 4 -23 10 -37 14 -32 3 5
15 13 26 17 16 6 17 9 5 16 -12 8 -11 10 5 11 11 1 4 5 -15 9 -25 5 -5 8 66 9
55 0 184 4 285 7 101 4 181 3 177 -1 -4 -5 -3 -14 3 -22 6 -7 8 -13 3 -13 -5
0 -2 -5 6 -11 11 -8 12 -12 2 -16 -6 -2 -10 -9 -7 -13 3 -5 -26 -12 -65 -16
-87 -8 -83 -17 7 -18 63 -1 67 -3 73 -26 7 -27 -8 -60 -26 -60 -9 0 -9 -6 -1
-25 7 -14 18 -25 25 -25 15 0 16 -73 2 -101 -9 -15 -20 -19 -55 -17 -63 2 -63
-6 -1 -25 61 -20 72 -36 51 -77 -25 -48 -20 -60 24 -60 32 0 40 4 45 22 3 13
1 27 -4 32 -15 15 -12 26 5 26 18 0 20 16 4 26 -7 4 -9 28 -6 68 6 58 6 59 -7
27 -13 -36 -33 -28 -21 8 3 11 1 22 -5 26 -6 4 -10 30 -9 58 0 29 -2 94 -6
146 l-7 93 108 -4 c101 -5 109 -7 128 -31 18 -22 30 -26 94 -29 78 -3 93 8 40
31 -24 11 -33 11 -36 3 -4 -14 -52 -16 -52 -3 0 11 25 21 55 21 23 0 94 -28
105 -41 3 -3 22 -9 42 -13 20 -4 38 -12 40 -18 2 -6 14 -13 27 -15 13 -2 20 1
16 7 -3 5 -2 10 4 10 5 0 12 -6 14 -12 4 -10 6 -10 6 0 1 10 6 10 21 2 12 -6
33 -10 48 -9 57 4 61 2 59 -43 0 -24 3 -69 7 -101 l8 -58 42 6 c35 6 44 4 50
-10 3 -9 3 -21 0 -26 -5 -8 17 -92 46 -179 l8 -25 1 24 c1 14 -8 58 -20 99
-11 40 -19 75 -17 77 2 2 47 5 100 7 67 2 101 -1 110 -10 9 -9 15 -8 28 3 10
9 47 18 85 22 57 5 64 8 44 15 -13 5 -47 7 -76 3 -32 -4 -54 -2 -58 5 -3 5
-10 8 -15 5 -4 -3 -15 12 -23 33 -9 20 -23 54 -31 74 l-16 38 -38 -15 c-20 -8
-54 -13 -74 -12 -35 2 -38 5 -39 32 -2 29 -2 29 -6 3 -5 -31 -17 -37 -60 -31
-26 4 -33 10 -33 27 0 20 8 24 61 34 34 6 65 9 69 7 18 -11 217 17 315 45 61
17 126 35 145 40 55 15 263 13 257 -2 -2 -7 -14 -12 -26 -11 -19 3 -20 0 -11
-18 11 -19 6 -55 -16 -128 -5 -16 -4 -22 3 -18 6 4 13 20 17 37 l6 31 21 -20
c31 -28 143 -81 170 -80 21 1 20 2 -6 8 -36 9 -143 66 -168 91 -18 17 -18 19
3 61 13 24 28 47 34 51 6 4 142 8 303 8 230 0 291 -3 288 -13 -4 -8 -24 -11
-60 -10 -31 0 -53 -3 -49 -8 3 -5 -18 -9 -45 -9 -34 0 -51 4 -51 13 0 8 -4 7
-10 -3 -9 -13 -11 -13 -20 0 -6 10 -10 11 -10 3 0 -7 -11 -13 -25 -13 -14 0
-25 -4 -25 -10 0 -6 28 -10 65 -10 55 0 65 -3 65 -17 1 -17 1 -17 11 -1 7 12
22 18 49 18 l40 0 0 -41 0 -41 -40 4 c-25 2 -40 -1 -40 -8 0 -6 12 -9 30 -6
17 2 37 -1 45 -8 9 -8 15 -8 15 -2 0 6 11 9 25 7 14 -1 25 2 25 6 0 8 -22 13
-42 10 -4 0 -6 16 -5 37 2 36 3 37 44 40 39 3 42 1 46 -25 3 -20 4 -16 6 15 2
58 2 57 -15 56 -8 -1 -14 2 -14 7 0 5 9 9 20 9 11 0 20 3 20 8 0 4 -90 6 -200
4 -196 -3 -200 -2 -200 18 0 13 7 20 20 20 11 0 20 5 20 10 0 6 -18 10 -40 10
-29 0 -40 -4 -40 -15 0 -8 -9 -15 -20 -15 -11 0 -23 -7 -26 -15 -5 -12 -25
-15 -91 -15 l-85 0 4 30 c3 16 1 30 -3 30 -15 0 -43 64 -42 95 1 26 0 25 -9
-10 -8 -29 -8 -40 1 -43 6 -2 16 -12 21 -23 10 -18 7 -19 -60 -19 -64 0 -70 2
-56 15 8 8 30 15 48 16 22 1 9 5 -37 14 -38 7 -73 14 -76 14 -4 1 -10 -7 -14
-16 -5 -15 -4 -16 6 -6 19 19 26 16 31 -12 4 -21 1 -25 -18 -25 -12 0 -26 5
-29 10 -4 7 -14 6 -28 -1 -12 -7 -43 -12 -69 -13 -27 -1 -47 -5 -46 -11 2 -5
8 -10 15 -10 23 0 26 -15 7 -30 -15 -11 -51 -14 -164 -13 -115 1 -132 2 -85 8
33 4 80 15 104 24 24 9 52 16 62 16 11 0 19 5 19 12 0 8 -30 9 -112 5 -62 -4
-131 -7 -153 -7 -33 -1 -37 -2 -22 -11 10 -6 28 -8 40 -5 12 2 31 -2 41 -10
18 -12 4 -14 -124 -12 -183 2 -244 12 -258 41 -6 12 -11 16 -11 10 -1 -15 -47
-17 -56 -3 -3 6 -15 10 -27 10 -14 0 -18 5 -14 15 3 10 -1 15 -12 15 -15 0
-15 2 -2 10 13 8 12 10 -2 10 -10 0 -18 5 -18 10 0 6 7 10 15 10 8 0 15 5 15
10 0 6 -7 10 -15 10 -21 0 -19 30 3 46 16 13 16 14 -2 7 -13 -4 -17 -3 -12 5
4 7 2 12 -3 12 -11 0 -16 -41 -12 -94 2 -18 -1 -26 -8 -21 -6 3 -11 13 -11 20
0 8 -11 17 -25 21 -14 3 -25 12 -25 20 0 8 -3 13 -7 12 -19 -6 -53 32 -62 68
-5 21 -10 30 -10 19 -1 -16 -3 -17 -11 -5 -6 10 -4 20 6 31 7 8 14 20 14 25 0
5 14 15 31 21 26 10 29 14 20 32 -6 11 -11 39 -10 63 l1 43 13 -30 c12 -26 14
-27 15 -8 0 30 16 38 23 12 4 -13 10 -18 18 -14 7 5 10 3 7 -6 -6 -17 90 -108
122 -116 14 -3 30 -10 37 -15 8 -6 19 -2 32 11 22 22 34 24 65 12 17 -7 17 -8
2 -24 -10 -9 -23 -17 -30 -17 -16 0 -9 -51 8 -62 25 -17 46 -8 46 18 0 26 1
26 48 19 26 -4 51 -12 55 -18 4 -7 6 4 5 23 -2 25 -8 36 -22 38 -10 2 -21 -1
-25 -6 -6 -10 -26 -15 -48 -13 -22 2 -15 41 7 41 11 0 20 4 20 10 0 5 7 7 15
4 12 -5 15 3 15 42 -1 44 -2 47 -13 27 -7 -12 -15 -22 -19 -22 -5 -1 -8 -4 -7
-8 1 -5 5 -7 10 -5 5 1 9 -2 9 -8 0 -5 -11 -10 -24 -10 -22 0 -23 3 -25 79 -2
73 0 79 20 84 22 6 18 27 -7 27 -9 0 -14 11 -14 35 0 33 2 35 35 35 37 0 59
25 36 40 -9 5 -6 9 8 13 12 3 19 1 16 -3 -3 -5 -1 -11 5 -15 5 -3 10 0 10 8 0
8 9 17 21 20 15 4 19 2 15 -8 -3 -8 -1 -17 4 -20 6 -4 10 0 10 7 0 10 35 13
168 11 299 -3 282 -2 276 -18 -4 -9 -19 -14 -42 -13 -56 1 -64 -1 -56 -13 3
-6 17 -8 29 -5 21 5 24 2 28 -26 l4 -33 1 33 c2 42 30 44 39 2 3 -17 10 -33
14 -36 5 -3 9 -15 9 -27 0 -15 3 -18 11 -10 7 7 5 27 -9 67 -21 63 -20 71 3
25 12 -21 21 -29 33 -25 16 6 16 5 1 -7 -19 -15 -14 -76 7 -84 26 -10 13 -136
-15 -139 -34 -4 -36 -5 -20 -14 13 -8 14 -17 6 -64 -8 -40 -7 -62 1 -78 l12
-23 -6 24 c-5 17 -3 21 6 16 10 -6 11 4 7 41 -4 34 -3 41 3 24 l8 -25 7 23
c14 45 23 20 18 -50 -5 -67 -4 -71 10 -53 15 20 19 21 55 24 36 2 56 27 58 72
2 24 1 52 -2 62 -8 26 -31 21 -38 -9 -6 -21 -11 -25 -39 -22 -23 2 -33 9 -35
23 -2 12 0 16 5 8 6 -8 15 -6 32 8 13 10 18 19 12 19 -8 0 -9 5 -3 17 6 9 9
42 7 72 -1 31 -1 42 2 25 3 -26 8 -31 24 -27 10 3 19 9 19 13 0 4 9 10 20 13
12 3 20 0 20 -8 0 -8 14 -12 40 -12 22 0 40 3 40 8 0 4 10 10 23 12 12 2 -3 5
-33 6 -100 2 -152 27 -149 73 0 7 4 4 9 -8 10 -27 48 -34 154 -32 l81 1 -96 6
c-59 4 -102 11 -112 20 -20 16 -23 77 -4 84 10 4 10 6 0 6 -7 1 -13 7 -13 15
0 23 53 26 405 24 227 -1 332 -5 338 -12 9 -14 27 12 20 31 -6 15 -23 18 -23
3 0 -6 -71 -10 -194 -10 -159 0 -195 3 -199 14 -3 8 -23 17 -44 19 -29 3 -24
4 20 5 76 3 74 22 -3 22 l-60 0 0 -30 0 -30 -135 0 -135 0 0 25 c0 22 4 25 33
25 18 0 42 -7 53 -15 28 -21 37 -18 17 5 -12 14 -30 20 -60 20 -43 0 -43 0
-44 38 l-1 37 -12 -40 -13 -40 -8 30 c-4 17 -14 39 -21 50 -13 18 -14 15 -14
-28 0 -53 -14 -55 -25 -5 -4 17 -26 51 -49 76 -45 49 -146 122 -170 122 -8 0
-17 4 -20 9 -10 15 -101 40 -205 56 -98 15 -123 16 -186 9z m163 -38 c40 -4
98 -16 130 -28 127 -47 271 -149 308 -220 18 -35 5 -36 -27 -2 -13 14 -46 37
-72 50 -26 14 -46 28 -43 32 3 5 1 14 -3 21 -6 10 -10 9 -14 -3 -4 -9 3 -23
16 -34 39 -31 62 -91 37 -92 -97 -5 -165 0 -168 12 -1 7 -20 21 -42 31 -52 22
-56 56 -7 58 17 1 35 1 40 0 14 -2 7 18 -10 29 -17 11 -17 11 0 6 9 -3 17 -1
17 4 0 8 -66 36 -130 55 -14 4 -29 11 -35 15 -15 12 -193 5 -260 -10 -57 -13
-123 -48 -172 -93 -13 -11 -23 -16 -23 -10 0 6 -9 9 -19 6 -17 -4 -18 -8 -8
-24 9 -15 8 -24 -5 -46 -14 -23 -26 -29 -74 -35 -32 -4 -60 -6 -62 -3 -4 4 46
72 77 105 27 29 74 59 82 54 5 -3 18 4 29 14 38 35 114 70 190 87 83 19 162
32 170 29 3 -1 38 -5 78 -8z m-602 -356 c38 0 38 -15 0 -30 -14 -6 -16 -9 -5
-9 12 -1 18 -15 22 -61 5 -58 -7 -191 -18 -211 -9 -14 -65 -11 -65 4 0 8 -4 7
-11 -3 -8 -11 -9 -7 -5 19 3 18 6 53 6 77 0 24 3 43 8 43 4 -1 13 -1 20 0 17
2 15 76 -3 91 -16 14 -16 14 -33 -55 l-10 -40 -1 52 c-1 64 25 137 46 129 8
-3 30 -6 49 -6z m16 -508 c21 -23 55 -53 78 -67 43 -27 170 -80 210 -88 14 -2
-32 -5 -102 -6 -106 -1 -128 2 -128 14 0 7 -8 19 -17 25 -15 8 -13 9 9 4 15
-3 35 -1 45 5 14 8 4 11 -47 12 -94 3 -97 3 -107 13 -4 5 -3 6 5 2 14 -8 17
10 2 19 -5 3 -10 18 -10 33 l0 26 37 -35 37 -34 -37 46 c-24 30 -37 56 -37 75
1 25 2 27 13 13 7 -9 29 -35 49 -57z m542 -173 c-3 -5 60 -9 153 -10 l158 -1
-60 -19 c-37 -12 -75 -17 -100 -14 -26 3 -33 2 -20 -3 16 -8 14 -10 -14 -15
-51 -10 -120 -8 -143 4 -11 6 -18 7 -15 2 3 -4 -13 -9 -36 -9 -23 0 -34 1 -24
4 9 2 17 8 17 14 0 6 -23 7 -62 3 -59 -6 -243 16 -275 34 -6 3 63 5 154 3 100
-2 170 1 175 6 13 13 100 14 92 1z"/>
<path d="M37 553 c-4 -3 -2 -12 4 -20 9 -10 6 -13 -15 -13 l-26 0 0 -172 c0
-95 5 -190 10 -210 16 -56 115 -147 136 -125 13 12 19 113 13 212 -3 61 -7 92
-8 70 -4 -67 -7 -117 -9 -182 -1 -35 -6 -63 -12 -63 -8 0 -9 174 0 205 1 6 1
30 0 55 -4 56 -17 -84 -20 -205 -1 -63 -4 -74 -10 -51 -5 16 -15 33 -22 37 -9
6 -8 13 7 31 11 13 13 17 5 11 -20 -19 -33 -16 -25 4 4 10 7 68 7 129 -1 62 3
125 7 142 11 38 -2 112 -23 127 -9 7 -13 15 -9 18 3 4 4 7 1 7 -2 0 -8 -3 -11
-7z"/>
<path d="M2275 305 c-5 -45 -2 -120 6 -190 l13 -115 53 0 52 0 -16 33 c-9 17
-21 41 -26 52 -15 29 -26 95 -16 95 5 0 9 -5 9 -12 0 -6 3 -8 6 -5 4 4 2 13
-5 20 -6 8 -14 34 -17 59 -5 37 -3 49 13 65 20 20 20 20 -11 40 -17 11 -36 23
-43 27 -8 4 -13 -16 -18 -69z"/>
</g>
</svg>
