<?xml version="1.0" standalone="no"?>
<!DOCTYPE svg PUBLIC "-//W3C//DTD SVG 20010904//EN"
 "http://www.w3.org/TR/2001/REC-SVG-20010904/DTD/svg10.dtd">
<svg version="1.0" xmlns="http://www.w3.org/2000/svg"
 width="479.000000pt" height="264.000000pt" viewBox="0 0 479.000000 264.000000"
 preserveAspectRatio="xMidYMid meet">
<metadata>
Created by potrace 1.16, written by Peter Selinger 2001-2019
</metadata>
<g transform="translate(0.000000,264.000000) scale(0.100000,-0.100000)"
fill="#000000" stroke="none">
<path d="M2788 2463 c-2 -5 -2 -74 0 -155 l3 -148 29 0 c49 0 60 29 60 155 0
126 -11 155 -60 155 -16 0 -30 -3 -32 -7z"/>
<path d="M2696 2308 c4 -84 8 -155 10 -157 2 -2 19 0 39 3 41 8 49 36 10 36
-24 0 -25 3 -25 54 0 45 3 54 20 59 11 3 20 12 20 21 0 9 -8 16 -20 16 -17 0
-20 7 -20 39 0 31 4 41 20 46 37 12 23 35 -21 35 l-40 0 7 -152z"/>
<path d="M2482 2438 c-8 -8 -12 -56 -12 -148 0 -144 5 -160 46 -160 45 0 54
32 47 164 -3 67 -10 129 -15 139 -10 20 -48 23 -66 5z"/>
<path d="M2587 2388 c14 -60 13 -122 -3 -210 -5 -31 -4 -38 9 -38 12 0 18 14
23 50 7 55 24 78 24 33 0 -46 11 -73 30 -73 16 0 16 5 2 78 -11 57 -12 96 -5
150 6 54 6 72 -3 72 -15 0 -24 -23 -24 -61 0 -45 -17 -34 -24 16 -6 35 -11 45
-26 45 -17 0 -18 -3 -3 -62z"/>
<path d="M2368 2433 c-16 -4 -18 -20 -18 -159 l0 -154 30 0 c47 0 70 30 70 95
0 40 -4 56 -17 63 -15 9 -15 11 1 28 15 14 17 27 12 63 -8 60 -29 77 -78 64z"/>
<path d="M2823 2123 c-23 -4 -23 -7 -23 -154 0 -142 1 -149 20 -149 18 0 20 7
20 70 0 40 4 70 10 70 6 0 10 -28 10 -65 0 -55 3 -65 18 -65 15 0 17 9 14 67
-2 38 -8 73 -13 80 -7 7 -6 14 1 18 5 3 10 31 10 60 0 43 -4 56 -19 65 -11 5
-21 9 -23 9 -2 -1 -13 -4 -25 -6z"/>
<path d="M2947 2110 c-13 -50 -37 -197 -37 -222 0 -14 9 -33 19 -42 19 -17 21
-17 45 8 31 30 31 31 2 171 -17 80 -25 103 -29 85z"/>
<path d="M2733 2113 c-23 -4 -23 -7 -23 -154 l0 -149 40 0 c33 0 40 3 40 20 0
13 -7 20 -20 20 -18 0 -20 7 -20 55 0 48 2 55 20 55 13 0 20 7 20 20 0 13 -7
20 -20 20 -17 0 -20 7 -20 40 0 33 3 40 20 40 13 0 20 7 20 20 0 20 -9 22 -57
13z"/>
<path d="M2535 2088 c-4 -13 -25 -252 -25 -288 0 -36 29 -10 32 28 2 26 8 38
21 40 14 3 17 -4 17 -38 0 -34 3 -41 18 -38 10 2 16 11 15 23 -1 11 -7 80 -14
153 -12 129 -13 132 -36 132 -13 0 -26 -6 -28 -12z"/>
<path d="M2428 2082 c-15 -3 -18 -15 -18 -78 0 -43 -4 -74 -10 -74 -6 0 -10
26 -10 59 0 68 -6 91 -26 91 -17 0 -17 -19 -2 -183 11 -120 13 -128 32 -125
19 3 22 14 32 113 6 63 12 90 12 64 4 -115 14 -169 32 -169 18 0 20 13 36 223
6 77 5 87 -10 87 -13 0 -16 -12 -17 -62 -1 -90 -17 -122 -19 -38 -2 77 -9 97
-32 92z"/>
<path d="M2442 1734 c-35 -24 -31 -102 9 -160 22 -32 29 -54 27 -77 -4 -44
-22 -40 -26 6 -2 25 -8 37 -18 37 -12 0 -14 -11 -12 -52 3 -51 4 -53 34 -56
42 -4 59 19 56 75 -1 31 -11 61 -32 93 -33 51 -41 110 -15 110 11 0 15 -11 15
-41 0 -56 24 -46 28 11 3 33 -1 47 -14 57 -22 16 -25 16 -52 -3z"/>
<path d="M2898 1453 c-16 -4 -18 -20 -18 -149 0 -121 2 -144 15 -144 15 0 18
15 19 97 2 60 21 39 24 -24 2 -47 7 -63 17 -63 20 0 21 123 2 142 -12 10 -12
15 0 26 16 17 17 94 1 110 -12 12 -28 13 -60 5z"/>
<path d="M2520 1401 l-35 -6 -3 -140 c-1 -76 -1 -144 2 -150 2 -7 19 -9 40 -7
27 3 36 9 36 23 0 12 -7 19 -20 19 -18 0 -20 7 -20 55 0 48 2 55 20 55 13 0
20 7 20 19 0 14 -5 18 -20 14 -18 -5 -20 0 -20 37 0 33 4 43 20 47 11 3 20 14
20 24 0 11 -1 18 -2 18 -2 -1 -19 -4 -38 -8z"/>
<path d="M2383 1383 c-23 -4 -23 -7 -23 -154 l0 -149 30 0 c47 0 70 30 70 95
0 39 -4 56 -16 63 -14 8 -14 10 0 21 21 18 21 94 0 115 -16 16 -21 17 -61 9z"/>
<path d="M2102 1003 c-36 -14 -60 -149 -31 -178 12 -12 14 -11 16 12 0 14 8
33 17 41 14 14 18 14 30 2 22 -23 28 -101 11 -125 -13 -16 -19 -18 -35 -7 -30
18 -42 15 -28 -8 18 -28 37 -33 64 -15 20 13 24 24 24 70 0 65 -26 129 -49
120 -9 -4 -20 -7 -26 -8 -5 -1 -13 -9 -17 -17 -5 -11 -7 -8 -7 8 -1 39 27 82
53 82 23 0 116 -87 116 -109 0 -6 9 -15 20 -21 15 -8 26 -7 46 7 26 17 131 35
136 24 10 -20 212 -75 244 -67 17 5 28 -1 44 -24 24 -34 71 -47 115 -30 16 6
59 33 96 60 36 28 81 53 98 56 44 9 40 28 -5 21 -20 -4 -60 -25 -91 -49 -77
-60 -93 -68 -135 -68 -29 0 -41 6 -58 30 l-22 30 21 34 c28 45 66 69 98 61 20
-5 24 -2 21 12 -2 12 -12 18 -33 18 -23 0 -36 -9 -62 -45 -67 -89 -72 -93
-128 -88 -27 3 -83 19 -123 37 -41 18 -80 30 -88 27 -7 -3 -16 -1 -19 5 -8 12
-73 1 -103 -18 -31 -19 -55 -9 -85 37 -26 38 -86 91 -103 89 -5 0 -15 -3 -22
-6z"/>
<path d="M1824 890 c-21 -8 -57 -50 -50 -58 2 -2 16 9 30 23 34 34 64 30 93
-14 33 -49 32 -161 -2 -161 -9 0 -11 13 -7 45 9 87 -60 134 -82 55 -12 -46
-11 -45 -37 -21 -23 21 -59 29 -59 12 0 -5 12 -12 27 -15 14 -4 51 -29 82 -57
55 -49 74 -58 86 -39 3 6 34 10 67 10 51 0 67 -4 97 -27 36 -28 187 -68 196
-53 7 11 -52 30 -94 30 -36 0 -47 5 -112 47 -23 16 -49 23 -81 23 -46 0 -48 1
-48 29 0 25 5 30 28 34 l27 4 -27 2 c-20 1 -28 6 -28 20 0 31 -28 89 -52 105
-25 18 -25 18 -54 6z"/>
<path d="M2490 709 c-57 -23 -121 -112 -154 -216 -20 -60 -50 -103 -74 -104
-14 0 -13 -2 3 -8 23 -10 59 22 62 54 1 11 7 21 13 23 5 2 8 7 5 11 -8 14 32
109 58 137 l26 27 63 -16 c105 -26 120 -29 113 -17 -3 5 -15 10 -27 10 -18 0
-19 4 -14 35 12 63 -16 87 -74 64z"/>
</g>
</svg>
