<?xml version="1.0" standalone="no"?>
<!DOCTYPE svg PUBLIC "-//W3C//DTD SVG 20010904//EN"
 "http://www.w3.org/TR/2001/REC-SVG-20010904/DTD/svg10.dtd">
<svg version="1.0" xmlns="http://www.w3.org/2000/svg"
 width="314.000000pt" height="264.000000pt" viewBox="0 0 314.000000 264.000000"
 preserveAspectRatio="xMidYMid meet">
<metadata>
Created by potrace 1.16, written by Peter Selinger 2001-2019
</metadata>
<g transform="translate(0.000000,264.000000) scale(0.100000,-0.100000)"
fill="#000000" stroke="none">
<path d="M1855 2630 c-3 -5 1 -10 9 -10 8 0 18 -4 21 -10 3 -6 -1 -7 -9 -4
-10 4 -16 1 -16 -9 0 -20 51 -18 58 2 3 8 0 11 -7 7 -7 -5 -9 -1 -5 8 7 18 20
20 37 6 7 -6 21 -17 32 -25 l20 -15 -20 6 c-16 6 -18 4 -8 -6 6 -7 38 -14 70
-16 32 -2 87 -6 122 -9 53 -5 66 -3 78 12 8 10 12 13 9 7 -3 -6 6 -9 25 -6 39
6 37 22 -3 22 -22 0 -29 3 -20 9 8 5 39 9 70 9 l56 0 -35 -16 -34 -17 35 -5
c19 -3 36 -11 38 -18 4 -19 -22 -42 -38 -32 -10 6 -10 9 1 13 8 3 4 6 -9 6
-13 1 -21 -3 -18 -8 6 -10 -47 -21 -104 -22 l-35 -1 38 -10 c53 -14 46 -24
-15 -19 -29 2 -48 6 -42 8 18 6 4 43 -17 43 -10 0 -21 -4 -24 -10 -3 -5 0 -7
7 -5 8 3 14 -2 15 -13 1 -17 -5 -19 -60 -18 -34 1 -71 -1 -83 -5 -24 -8 -50 4
-40 19 3 5 -5 10 -19 10 -14 0 -22 -5 -19 -10 9 -15 -14 -26 -42 -20 -24 4
-28 14 -26 62 1 14 -1 20 -4 13 -4 -9 -15 -8 -44 2 -21 7 -40 12 -43 9 -11
-11 -108 -5 -124 7 -12 9 -10 3 6 -18 l22 -33 -21 0 c-12 0 -18 5 -15 10 3 6
-6 11 -22 12 -15 0 -41 3 -58 5 -16 2 -51 5 -77 6 -27 1 -48 5 -48 10 0 10
-28 9 -32 -3 -1 -5 -20 -11 -41 -13 -21 -2 -40 -7 -43 -10 -4 -3 -29 3 -58 14
-40 16 -55 18 -69 9 -13 -8 -34 -8 -80 1 -58 10 -237 20 -389 21 -47 0 -68 4
-68 13 0 8 -9 10 -25 7 -18 -3 -30 1 -40 14 -12 16 -14 17 -15 3 0 -20 -54
-31 -70 -15 -7 7 -14 4 -24 -9 -13 -18 -14 -18 -20 3 -4 12 -14 22 -23 22 -14
0 -14 -3 2 -20 18 -20 17 -20 -71 -19 -60 1 -81 4 -64 9 21 7 12 15 -12 11 -5
0 -8 3 -8 8 0 4 -30 9 -67 10 -36 1 -70 4 -75 7 -11 7 -49 -18 -82 -53 -24
-25 -24 -28 -7 -39 10 -7 30 -16 45 -20 19 -4 24 -9 15 -14 -6 -5 -9 -15 -6
-23 3 -9 1 -18 -6 -20 -7 -2 0 -6 15 -9 17 -3 32 0 39 8 8 10 5 11 -13 8 -20
-5 -21 -4 -5 6 9 6 17 16 17 23 0 7 13 13 29 14 33 2 73 31 64 46 -3 5 7 7 23
4 38 -7 159 -20 204 -22 84 -2 101 -5 95 -16 -9 -14 28 -48 51 -47 11 0 24 -1
29 -2 6 -2 22 0 36 4 20 6 25 12 22 27 -4 16 0 19 26 19 19 0 30 -4 26 -10 -3
-5 1 -10 10 -10 9 0 14 4 11 8 -3 5 1 9 9 9 23 0 18 -12 -11 -27 -19 -11 -24
-20 -21 -37 2 -12 1 -20 -3 -18 -4 2 -12 -7 -18 -20 -7 -15 -8 -25 -2 -25 6 0
10 -7 10 -15 0 -8 -4 -15 -10 -15 -5 0 -19 -9 -31 -21 -16 -16 -23 -18 -35 -9
-15 13 -9 34 7 25 20 -13 30 7 15 30 -8 12 -13 31 -10 42 5 18 3 20 -48 23 -7
1 -24 -2 -37 -6 -18 -5 -22 -4 -16 5 13 21 -36 2 -58 -23 -13 -15 -20 -18 -24
-8 -4 10 -8 9 -19 -5 -12 -16 -15 -16 -24 -3 -9 13 -10 13 -11 0 -1 -8 -1 -19
0 -25 1 -5 -5 -1 -14 9 -10 13 -26 19 -50 18 -20 -1 -33 3 -30 8 8 13 -66 0
-90 -16 -18 -12 -23 -11 -38 6 -15 18 -53 18 -42 0 3 -5 -4 -8 -15 -7 -11 1
-20 4 -20 7 0 4 -23 6 -50 6 -36 -1 -49 2 -46 11 3 7 2 12 -2 12 -19 -3 -25 2
-12 11 13 8 12 10 -2 10 -15 0 -18 -9 -18 -59 0 -68 3 -71 91 -71 32 0 59 -4
59 -8 0 -4 24 -28 53 -52 30 -25 52 -51 49 -58 -3 -9 31 -12 140 -13 196 -1
232 1 240 14 4 7 8 -11 8 -40 0 -28 -4 -55 -10 -58 -6 -3 -10 4 -10 17 0 15
-6 24 -17 25 -23 2 -79 11 -107 18 -11 2 -15 2 -8 -1 14 -7 16 -34 2 -34 -5 0
-10 -7 -10 -15 0 -11 7 -14 25 -9 27 7 36 -12 11 -22 -8 -3 -12 -13 -9 -23 3
-10 -5 -38 -17 -61 -16 -31 -19 -45 -10 -50 8 -5 7 -9 -4 -13 -9 -4 -16 -13
-16 -22 0 -15 -48 -40 -58 -30 -3 3 0 5 6 5 7 0 12 5 12 11 0 5 -4 8 -9 4 -14
-8 -51 35 -51 59 0 26 -15 10 -23 -24 -5 -22 0 -29 32 -50 45 -27 44 -47 -5
-56 -30 -5 -42 -1 -89 35 -30 22 -59 41 -65 41 -7 0 -23 -9 -37 -20 -28 -22
-112 -50 -150 -50 l-23 0 0 -185 c0 -149 3 -183 13 -179 31 11 66 -17 118 -95
49 -73 79 -100 79 -70 0 5 5 7 10 4 15 -9 12 -25 -5 -25 -8 0 -15 -2 -15 -4 0
-5 225 -355 321 -498 44 -65 79 -121 78 -125 0 -4 -23 -23 -52 -42 -29 -19
-141 -99 -250 -178 -158 -115 -201 -142 -212 -133 -8 6 -29 35 -47 63 l-33 52
-3 -93 c-2 -55 2 -100 9 -113 8 -15 8 -19 0 -15 -27 17 -7 -27 26 -56 64 -58
74 -71 61 -79 -17 -11 -18 -48 -1 -42 7 3 13 -2 13 -11 0 -23 17 -20 23 4 3
13 0 20 -10 20 -8 0 -11 5 -8 10 8 13 22 5 36 -22 8 -15 8 -19 0 -14 -6 4 -11
2 -11 -3 0 -13 -19 -12 362 -17 175 -3 318 -1 317 3 0 4 -4 17 -8 28 -5 12 -4
26 2 33 8 11 5 18 -12 32 -35 25 -10 33 35 10 21 -11 31 -20 22 -20 -17 0 -28
-20 -28 -52 0 -18 1 -18 16 -3 9 8 13 22 10 30 -5 13 10 20 36 16 4 0 10 8 13
19 8 24 42 35 60 20 21 -18 18 -37 -6 -43 -12 -3 -18 -10 -14 -16 3 -6 0 -11
-7 -12 -7 0 -35 -11 -63 -24 l-50 -24 916 -1 c755 0 919 2 928 13 6 8 10 16 8
18 -1 2 2 1 8 -4 6 -5 4 -11 -5 -17 -11 -7 -10 -9 8 -7 16 1 22 8 22 24 0 13
5 22 13 21 7 -2 11 5 9 15 -2 9 1 17 5 16 23 -4 43 2 38 11 -3 5 2 9 12 8 10
0 37 0 61 0 35 2 42 5 42 22 0 11 -7 23 -15 26 -10 4 -12 10 -6 18 10 13 2 78
-9 71 -5 -3 -11 -1 -15 5 -3 5 -23 10 -44 10 -22 0 -44 6 -51 15 -11 13 -6 14
34 10 29 -3 46 0 46 7 0 7 17 8 53 4 39 -5 48 -4 37 5 -13 9 -12 10 3 5 10 -3
21 -6 23 -6 3 0 2 -5 -1 -10 -3 -6 -1 -10 4 -10 6 0 11 -4 11 -10 0 -5 -12
-10 -27 -10 -26 0 -68 -18 -50 -21 4 -1 12 -3 17 -4 6 -1 16 -3 23 -4 8 -1 7
-4 -3 -11 -9 -6 -10 -10 -3 -10 6 0 18 7 26 15 13 13 16 13 21 0 3 -8 2 -15
-2 -15 -4 0 -13 -9 -19 -20 -9 -14 -10 -21 -1 -26 7 -4 8 -3 4 4 -4 7 -2 12 3
12 20 0 11 -21 -11 -29 -15 -5 -26 -4 -30 3 -5 7 -8 5 -8 -6 0 -9 6 -18 13
-21 9 -3 9 -7 -1 -19 -13 -17 -7 -48 11 -48 6 0 8 -3 4 -6 -3 -3 -16 1 -28 10
-16 11 -27 12 -41 5 -10 -6 -29 -7 -41 -3 -21 6 -21 5 3 -16 l25 -23 -27 7
c-21 5 -28 3 -28 -9 0 -21 106 -21 150 1 30 15 33 15 41 1 8 -13 15 -14 39 -5
25 8 28 13 19 24 -6 8 -18 14 -25 14 -25 0 -15 25 24 63 44 43 48 44 48 17 0
-15 -5 -19 -21 -15 -19 6 -19 5 1 -7 12 -7 19 -19 17 -25 -3 -7 0 -13 7 -13 6
0 20 19 30 43 17 40 20 83 7 117 -4 8 -77 213 -162 455 -86 242 -209 574 -272
738 -131 338 -129 316 -31 349 45 15 47 17 16 12 -21 -2 -60 -2 -88 2 -42 6
-49 9 -38 19 14 14 218 59 226 50 3 -2 -10 -18 -28 -35 -18 -16 -28 -30 -24
-30 5 0 99 29 209 63 l200 63 1 49 c1 42 -2 51 -20 57 -20 6 -20 6 2 7 l22 1
0 233 c0 222 -1 234 -23 271 -12 22 -39 53 -60 70 l-39 31 -305 3 c-215 2
-303 0 -298 -8 4 -7 -23 -10 -89 -9 -53 1 -96 4 -96 8 0 12 -368 13 -375 1z
m-641 -204 l6 -23 205 -2 c113 -1 212 -4 222 -8 12 -5 14 -3 8 7 -6 10 -2 12
16 7 13 -4 33 -7 43 -7 11 0 16 -3 12 -7 -3 -4 -166 -8 -361 -9 -305 -3 -355
-1 -355 12 0 9 -10 14 -26 14 -15 0 -33 8 -40 18 -13 16 -14 16 -8 -1 6 -15 2
-18 -22 -15 -23 2 -28 -1 -26 -14 2 -13 -2 -16 -13 -12 -9 4 -14 13 -11 20 6
16 -20 19 -29 4 -3 -5 -12 -10 -18 -10 -7 0 -4 6 5 14 10 7 14 17 10 21 -4 4
5 5 19 2 15 -4 34 -1 47 9 20 14 21 14 15 -3 -5 -15 -4 -16 8 -7 24 19 131 3
125 -19 -1 -6 -1 -9 1 -4 3 4 9 5 14 2 5 -4 6 1 3 9 -8 20 7 20 32 0 17 -14
17 -15 1 -10 -10 3 -16 2 -13 -2 2 -4 29 -9 60 -10 52 -2 55 -1 51 20 -3 13
-9 24 -15 26 -6 2 -7 8 -4 13 8 14 31 -7 38 -35z m1526 1 c8 0 24 3 35 7 18 7
17 6 -1 -6 -18 -11 -20 -15 -8 -25 7 -7 20 -13 28 -13 7 0 17 -7 20 -16 3 -9
2 -12 -5 -9 -5 4 -17 4 -26 1 -14 -6 -14 -8 2 -20 18 -13 18 -14 -1 -19 -10
-4 -38 -8 -61 -9 -24 -2 -43 -6 -43 -10 0 -5 6 -8 13 -8 8 0 7 -4 -3 -10 -8
-5 -10 -10 -5 -10 6 0 16 5 21 10 8 8 15 6 24 -5 11 -13 8 -15 -16 -16 -26 0
-27 -1 -9 -10 17 -8 16 -9 -7 -6 -15 2 -25 0 -22 -4 3 -5 -1 -9 -8 -9 -10 0
-10 -2 1 -9 10 -6 2 -9 -23 -9 -20 0 -36 4 -36 9 0 5 -10 9 -22 9 -38 0 -4 22
35 23 31 1 34 3 26 18 -13 26 -50 49 -76 49 -12 0 -24 4 -27 8 -3 5 7 7 22 5
15 -3 36 3 47 12 11 8 16 15 10 14 -23 -3 -26 2 -10 17 13 14 18 14 32 2 13
-11 17 -11 21 0 3 10 8 10 21 -2 15 -14 18 -14 18 -1 0 8 -5 11 -10 8 -6 -4
-7 -1 -2 6 4 7 16 11 26 8 11 -3 17 -1 13 4 -3 5 -14 9 -24 9 -10 0 -22 5 -26
11 -4 8 1 9 17 3 13 -4 31 -7 39 -7z m-284 -182 c-2 -52 -6 -98 -9 -102 -4 -3
-7 -21 -7 -38 0 -29 -2 -32 -26 -27 -21 4 -25 9 -21 30 6 29 -1 54 -13 47 -4
-2 -16 3 -26 11 -10 9 -13 13 -6 9 9 -4 12 6 12 36 0 46 -9 50 -12 6 -2 -21
-8 -27 -25 -27 -13 0 -23 -4 -23 -10 0 -12 -276 -12 -360 0 -43 5 -47 8 -20 9
52 2 110 13 110 20 0 3 -17 7 -37 7 -144 4 -145 4 -140 18 4 9 0 13 -11 11 -9
-2 -19 -4 -22 -4 -3 -1 2 -6 10 -11 10 -7 -96 -9 -330 -5 -215 4 -347 10 -351
17 -4 6 -18 6 -40 1 -19 -5 -45 -6 -59 -2 -22 6 -19 7 15 9 28 2 33 4 16 7
-13 3 -44 2 -68 -2 -33 -5 -43 -10 -39 -21 4 -11 -3 -14 -32 -13 -73 3 -97 12
-97 39 l0 25 255 2 c140 2 481 0 757 -5 557 -8 530 -4 535 -75 3 -31 7 -37 26
-37 20 0 22 4 22 60 0 57 -1 60 -25 60 -14 0 -25 5 -25 10 0 6 7 10 16 10 8 0
22 7 30 15 9 8 17 15 19 15 2 0 2 -43 1 -95z m-1691 6 c3 -6 -19 -85 -50 -177
-30 -91 -55 -174 -55 -183 1 -17 24 -53 34 -52 24 3 27 -1 12 -12 -10 -7 -26
-37 -36 -67 -18 -52 -19 -53 -26 -26 -3 15 -4 54 -1 87 3 32 1 57 -3 54 -15
-9 -102 -176 -150 -289 -32 -73 -54 -112 -66 -115 -11 -2 -15 2 -11 10 3 8 23
57 45 109 21 52 67 151 100 220 34 69 83 191 110 271 52 159 77 202 97 170z
m1080 -51 c13 0 26 -7 29 -17 6 -15 -7 -15 -146 -10 -84 4 -254 7 -377 7 -148
0 -222 3 -215 10 9 9 586 20 658 13 16 -2 39 -3 51 -3z m616 -195 c1 -8 2 -19
3 -25 0 -5 10 -16 21 -24 18 -13 20 -29 23 -260 3 -135 1 -253 -2 -262 -5 -13
-9 -14 -21 -4 -7 6 -11 18 -8 26 3 7 -2 17 -11 20 -9 3 -16 14 -16 23 0 14 -2
14 -10 1 -8 -13 -10 -13 -10 2 0 9 -6 21 -13 25 -8 4 -17 20 -20 34 -6 24 -4
26 18 21 19 -3 27 2 36 22 15 33 -4 60 -38 53 -34 -6 -37 8 -8 39 27 29 27 27
29 99 1 34 5 49 14 48 8 -2 12 11 12 42 0 37 -3 45 -19 45 -15 0 -18 7 -16 38
3 52 3 52 20 52 8 0 16 -7 16 -15z m-474 -186 c107 -109 110 -112 92 -130 -11
-11 -25 -18 -31 -16 -7 1 -12 -4 -10 -12 2 -8 -3 -11 -13 -8 -8 4 -15 1 -15
-5 0 -18 -31 -35 -56 -30 -13 2 -21 8 -18 13 3 5 0 19 -6 31 -11 22 -11 22 8
-1 13 -17 21 -20 27 -12 4 7 -1 22 -11 34 -16 18 -14 18 9 -2 15 -14 27 -19
27 -13 0 7 3 12 8 11 14 -2 53 14 50 21 -2 4 -48 45 -103 90 -62 52 -99 89
-97 99 5 29 11 41 20 41 5 0 58 -50 119 -111z m-687 72 c9 -17 -1 -29 -72 -92
-123 -107 -115 -96 -85 -110 15 -7 24 -15 22 -20 -11 -16 26 -2 41 17 14 18
15 18 4 -4 -14 -28 -6 -40 14 -23 12 10 13 8 8 -11 -5 -21 -4 -22 11 -9 15 12
17 12 11 -3 -3 -9 -2 -16 4 -16 6 0 13 6 15 13 3 7 6 5 6 -5 1 -10 4 -17 9
-17 21 4 32 -2 26 -13 -5 -10 -4 -10 5 -2 9 8 23 8 53 -3 22 -7 60 -16 84 -20
24 -3 44 -11 44 -17 0 -6 5 -4 10 4 8 12 10 12 10 1 0 -11 3 -11 15 -1 12 10
15 10 15 0 0 -9 4 -9 17 1 9 8 14 9 10 3 -4 -7 13 -10 48 -11 30 0 52 3 49 8
-3 5 6 5 20 -1 20 -7 27 -6 35 8 7 12 10 13 11 3 0 -10 3 -11 13 -3 10 9 19 7
37 -5 22 -16 22 -17 4 -23 -10 -4 -22 -2 -26 4 -5 7 -8 6 -8 -4 0 -13 -1 -13
-10 0 -8 13 -10 12 -10 -2 0 -11 -7 -18 -17 -18 -15 0 -16 2 -3 10 13 8 12 10
-2 10 -10 0 -18 -4 -18 -9 0 -5 -7 -12 -16 -15 -11 -4 -15 -2 -11 8 4 11 -1
13 -21 10 -15 -3 -28 -9 -30 -15 -2 -5 -10 -9 -18 -9 -9 0 -12 5 -9 10 3 6 1
10 -4 10 -6 0 -11 -4 -11 -10 0 -5 -21 -10 -46 -10 -27 0 -43 4 -39 10 3 6 1
10 -4 10 -6 0 -11 -4 -11 -8 0 -10 -79 0 -98 12 -7 4 -25 10 -39 12 -15 3 -30
8 -33 12 -3 4 -14 9 -25 10 -11 2 -22 8 -23 13 -2 5 -8 7 -13 3 -5 -3 -9 0 -9
5 0 6 -7 11 -15 11 -8 0 -15 5 -15 11 0 5 -4 8 -9 5 -5 -3 -24 9 -42 27 -19
17 -38 31 -42 29 -4 -1 -10 5 -14 14 -4 12 -8 13 -14 3 -4 -7 -3 -19 3 -26 17
-21 -7 -15 -27 7 -17 19 -17 20 -1 20 9 0 15 4 12 8 -7 12 182 212 200 212 7
0 18 -9 24 -19z m-427 -408 c-19 -7 -16 -53 2 -53 8 0 15 9 15 20 0 11 7 20
15 20 8 0 15 -9 15 -20 0 -19 7 -20 193 -20 173 0 197 -2 232 -20 23 -12 59
-20 86 -20 26 0 49 -4 51 -10 4 -13 165 -15 181 -2 6 5 39 13 72 17 33 3 70
13 82 21 17 11 66 14 218 14 188 0 195 1 195 20 0 11 5 20 11 20 6 0 13 -9 16
-20 3 -11 12 -20 19 -20 17 0 18 32 2 48 -9 9 -7 12 8 12 17 0 20 -5 16 -30
-4 -27 -1 -30 22 -30 14 0 26 -4 26 -10 0 -5 -7 -10 -15 -10 -8 0 -15 -3 -15
-8 0 -4 -10 -12 -22 -17 -13 -6 -23 -17 -23 -25 0 -8 -4 -26 -9 -39 l-8 -24
-272 7 c-149 3 -483 7 -743 8 -444 1 -473 3 -487 20 -15 17 -24 79 -10 65 4
-4 19 2 34 13 16 11 33 20 38 20 6 0 13 14 17 30 5 22 12 30 28 29 12 0 16 -3
10 -6z"/>
<path d="M88 2170 c-15 -4 -41 -18 -58 -30 -30 -21 -30 -22 -30 -114 0 -84 2
-95 23 -114 32 -30 76 -28 123 7 72 52 104 108 104 180 0 36 -3 41 -43 60 -45
22 -74 25 -119 11z"/>
<path d="M2985 1751 c0 -111 -28 -520 -35 -516 -10 6 -22 -157 -13 -166 7 -7
153 -29 190 -29 10 0 13 73 13 351 0 323 -1 353 -17 365 -17 13 -17 13 0 14
10 0 17 8 17 19 0 17 -9 20 -62 25 -98 8 -93 11 -93 -63z"/>
<path d="M50 932 c0 -4 6 -14 13 -21 10 -10 5 -19 -26 -45 l-37 -33 1 -87 c2
-59 7 -92 16 -101 7 -8 13 -18 13 -22 -1 -8 20 -15 83 -28 23 -5 26 -9 21 -30
-8 -31 3 -33 16 -2 8 17 8 14 4 -15 -8 -49 11 -51 20 -2 6 29 11 34 27 30 10
-4 28 -9 39 -12 35 -10 21 14 -15 26 -19 6 -35 16 -35 20 0 5 6 7 14 4 8 -3
17 -1 21 5 3 7 -2 11 -14 11 -18 0 -21 6 -21 49 0 54 -17 111 -33 111 -6 0 -7
3 -4 6 4 4 -2 19 -13 34 -21 29 -26 45 -12 36 4 -2 14 -1 21 3 10 6 9 11 -3
22 -34 31 -46 39 -46 32 0 -4 -5 -2 -12 5 -14 14 -38 16 -38 4z"/>
</g>
</svg>
