<?xml version="1.0" standalone="no"?>
<!DOCTYPE svg PUBLIC "-//W3C//DTD SVG 20010904//EN"
 "http://www.w3.org/TR/2001/REC-SVG-20010904/DTD/svg10.dtd">
<svg version="1.0" xmlns="http://www.w3.org/2000/svg"
 width="315.000000pt" height="265.000000pt" viewBox="0 0 315.000000 265.000000"
 preserveAspectRatio="xMidYMid meet">
<metadata>
Created by potrace 1.16, written by Peter Selinger 2001-2019
</metadata>
<g transform="translate(0.000000,265.000000) scale(0.100000,-0.100000)"
fill="#000000" stroke="none">
<path d="M133 2634 c-51 -19 -108 -79 -122 -131 -7 -26 -11 -408 -11 -1189 l0
-1150 25 -50 c27 -54 60 -84 114 -102 25 -9 390 -12 1440 -12 1338 0 1408 1
1446 19 46 21 101 79 112 119 5 15 8 551 8 1192 l0 1165 -22 42 c-27 50 -73
87 -128 102 -28 8 -454 11 -1430 10 -1202 0 -1396 -3 -1432 -15z m1924 -874
c85 -15 148 -65 179 -140 16 -40 16 -112 -1 -144 -8 -15 -15 -32 -15 -37 0
-14 -54 -85 -106 -141 -81 -87 -227 -175 -336 -203 -80 -20 -98 -19 -98 5 0
11 4 20 9 20 5 0 17 18 27 40 10 22 22 40 26 40 5 0 4 -9 -2 -21 -7 -11 -9
-24 -5 -27 3 -3 8 4 12 16 3 12 10 19 16 15 6 -4 7 -1 2 7 -5 8 -2 18 8 25 9
6 20 36 25 67 8 49 6 58 -10 72 -15 13 -25 62 -19 99 0 4 -4 7 -10 7 -6 0 -9
6 -6 13 3 8 -9 21 -31 32 -21 11 -55 31 -77 46 -22 14 -55 32 -72 40 -18 8
-33 18 -33 23 0 17 66 66 135 99 66 33 84 38 180 53 22 3 42 7 43 9 5 5 100
-4 159 -15z m-531 -385 c28 -30 22 -60 -17 -80 -33 -18 -49 -19 -49 -4 0 5 5
7 10 4 18 -11 11 1 -12 21 -16 13 -19 14 -10 2 9 -11 10 -18 2 -23 -8 -5 -5
-11 7 -21 17 -12 16 -13 -9 -14 -28 0 -37 -13 -18 -25 6 -3 10 -1 10 4 0 6 5
11 10 11 6 0 3 -11 -6 -25 -9 -14 -25 -25 -35 -25 -10 0 -21 -5 -25 -12 -5 -7
-3 -8 6 -3 8 5 11 3 8 -6 -2 -8 -18 -16 -34 -17 -16 -2 -31 -7 -34 -11 -3 -4
-16 -4 -30 0 l-25 7 25 1 c14 1 36 10 50 21 25 19 25 19 3 17 -12 0 -25 -7
-27 -14 -5 -13 -39 -13 -52 0 -4 4 -16 7 -26 7 -13 0 -17 4 -11 13 4 6 -5 4
-20 -6 -16 -10 -34 -16 -40 -14 -7 2 -21 0 -31 -6 -14 -7 -22 -6 -30 5 -6 8
-17 17 -25 19 -17 6 -43 81 -32 92 12 12 63 19 129 19 28 0 52 4 52 10 0 6 7
7 16 4 8 -3 12 -2 9 4 -7 12 8 14 19 3 4 -5 12 -9 17 -9 5 -1 10 -2 12 -3 10
-8 87 -9 92 -1 4 6 10 8 15 5 4 -3 10 4 13 15 6 22 -18 29 -26 8 -2 -7 -7 -10
-11 -7 -3 3 3 17 13 31 28 35 86 37 117 3z"/>
</g>
</svg>
