<?xml version="1.0" standalone="no"?>
<!DOCTYPE svg PUBLIC "-//W3C//DTD SVG 20010904//EN"
 "http://www.w3.org/TR/2001/REC-SVG-20010904/DTD/svg10.dtd">
<svg version="1.0" xmlns="http://www.w3.org/2000/svg"
 width="311.000000pt" height="265.000000pt" viewBox="0 0 311.000000 265.000000"
 preserveAspectRatio="xMidYMid meet">
<metadata>
Created by potrace 1.16, written by Peter Selinger 2001-2019
</metadata>
<g transform="translate(0.000000,265.000000) scale(0.100000,-0.100000)"
fill="#000000" stroke="none">
<path d="M2329 2613 c-44 -46 -195 -183 -203 -183 -3 0 -29 -24 -59 -52 -88
-86 -159 -143 -179 -144 -22 -2 -58 -32 -58 -50 0 -7 -4 -14 -8 -16 -10 -4 16
-98 28 -98 4 0 6 9 3 19 -7 27 13 59 39 63 15 2 29 16 40 40 10 21 30 45 45
55 15 10 39 30 53 44 14 14 30 24 37 22 7 -3 22 5 35 16 12 12 17 21 11 21 -7
0 -19 -7 -27 -16 -14 -13 -16 -13 -16 -1 0 9 19 29 42 46 37 28 43 29 49 14 4
-12 8 -13 13 -5 4 7 11 10 15 7 5 -2 13 7 19 20 7 14 16 25 22 25 6 0 8 -5 5
-10 -4 -6 -1 -18 7 -27 10 -13 10 -17 1 -20 -7 -3 -13 -11 -13 -20 0 -18 20
-13 34 10 8 12 6 25 -6 49 -22 42 -19 72 10 98 23 22 31 14 10 -10 -8 -8 -2
-7 15 3 20 13 27 14 28 5 0 -7 5 -1 11 15 5 15 14 27 20 27 6 0 19 10 29 22
11 11 22 18 26 15 3 -4 12 2 20 13 8 11 21 20 29 20 8 0 12 5 9 10 -3 6 -27
10 -53 10 -42 0 -52 -4 -83 -37z"/>
<path d="M2565 1953 c-65 -10 -193 -55 -236 -81 -24 -16 -56 -43 -69 -60 -53
-66 -90 -119 -90 -130 0 -6 -7 -18 -15 -26 -32 -31 -47 -124 -43 -261 3 -129
4 -131 44 -215 47 -96 89 -149 160 -200 l49 -35 -31 39 c-23 28 -31 45 -28 65
3 19 -2 33 -15 45 -20 18 -20 18 -17 0 3 -11 7 -28 11 -39 4 -11 -3 -5 -14 13
-15 23 -19 38 -12 46 6 7 6 17 1 26 -7 10 -10 11 -10 3 0 -15 -36 -18 -45 -4
-3 5 -1 12 5 16 17 11 11 35 -9 35 -15 0 -22 12 -32 53 -16 66 -16 198 0 257
16 57 58 150 68 150 5 0 20 21 35 48 15 26 45 64 68 84 50 46 53 47 92 59 36
10 33 7 -41 -46 -138 -99 -219 -270 -208 -440 5 -77 25 -152 34 -128 2 6 0 29
-6 50 -12 41 -15 146 -5 156 3 3 7 25 9 49 7 121 113 266 246 337 103 56 200
69 330 45 23 -5 31 -3 24 4 -33 33 -218 32 -302 -3 -19 -8 -37 -15 -40 -15 -8
0 51 46 72 57 34 18 124 26 140 13 8 -6 46 -13 85 -14 39 -2 73 -6 76 -9 3 -3
1 -14 -5 -25 -9 -17 -7 -22 19 -30 24 -9 28 -8 23 4 -3 8 -9 14 -14 14 -5 0
-9 7 -9 15 0 22 20 18 62 -10 20 -14 41 -25 46 -25 4 0 18 -9 31 -21 12 -12
25 -19 27 -16 3 3 -12 18 -33 33 -21 15 -43 34 -50 42 -7 8 -52 28 -100 44
-87 29 -209 43 -278 31z"/>
<path d="M3067 1114 c-96 -137 -251 -211 -427 -202 -104 6 -183 33 -256 88
-30 22 -54 37 -54 33 0 -10 88 -90 123 -111 15 -9 27 -20 27 -24 0 -4 11 -8
24 -8 13 0 26 -5 28 -10 2 -6 55 -13 123 -15 90 -4 116 -3 105 6 -12 9 -12 10
5 4 21 -7 155 34 155 47 0 5 4 7 9 4 4 -3 19 6 31 19 13 14 29 25 36 25 7 0
36 23 64 50 47 48 50 54 50 100 0 28 -1 50 -2 50 -2 -1 -20 -25 -41 -56z"/>
<path d="M1224 1124 c-18 -6 -36 -9 -40 -5 -4 3 -5 1 -1 -4 10 -18 -51 -39
-78 -27 -20 9 -22 8 -18 -8 6 -21 -66 -99 -85 -92 -7 2 -12 -5 -12 -16 0 -12
-10 -29 -22 -39 -33 -27 -79 -82 -53 -63 11 8 29 23 40 33 79 71 218 126 340
134 139 9 247 -19 375 -99 l35 -22 -20 23 c-23 27 -241 135 -255 126 -5 -3
-18 3 -30 15 -11 11 -23 21 -27 21 -24 4 -53 20 -53 29 0 13 -51 10 -96 -6z"/>
<path d="M1265 1022 c-106 -13 -230 -63 -254 -104 -13 -22 -12 -22 15 3 43 39
94 64 78 37 -4 -6 -7 -28 -7 -47 0 -32 -3 -36 -31 -41 -23 -4 -31 -10 -31 -25
0 -14 -16 -27 -57 -47 -45 -21 -63 -37 -92 -82 -20 -31 -36 -58 -36 -61 0 -2
29 9 64 25 128 58 330 95 464 85 37 -2 101 -13 142 -23 85 -22 246 -86 272
-109 9 -8 22 -16 30 -17 7 -1 23 -8 36 -14 25 -14 30 -1 7 22 -20 20 -19 23 8
22 12 -1 28 -8 35 -16 7 -8 -1 13 -18 46 -55 107 -150 206 -250 262 -77 43
-201 78 -185 52 3 -5 -8 -34 -26 -65 l-31 -55 -83 0 c-75 0 -84 2 -90 20 -6
19 -25 28 -25 12 0 -10 -25 -9 -56 2 -16 5 -20 12 -17 26 6 23 13 24 102 20
42 -1 61 1 57 8 -4 7 6 9 31 6 34 -4 36 -3 13 6 -14 6 -38 9 -54 6 -16 -4 -52
-3 -80 1 -49 6 -50 7 -21 15 17 5 81 11 144 14 115 4 162 13 80 15 -24 0 -57
2 -74 3 -16 1 -43 0 -60 -2z"/>
<path d="M1295 700 c-4 -6 -17 -7 -30 -4 -12 3 -26 1 -29 -5 -4 -5 -13 -8 -21
-4 -8 3 -15 0 -15 -6 0 -5 -12 -10 -27 -9 -40 1 -116 -10 -144 -21 -34 -13
-225 -130 -221 -136 7 -15 -1 -25 -22 -31 -15 -3 -38 -27 -59 -60 l-35 -54 54
48 c29 26 54 50 54 55 0 4 6 7 14 7 7 0 18 6 24 13 22 26 159 87 251 111 201
54 374 42 551 -37 50 -22 134 -77 127 -83 -2 -2 -43 17 -91 42 -112 59 -198
83 -321 91 -286 17 -588 -141 -723 -379 -24 -42 -92 -215 -92 -234 0 -2 156
-4 346 -4 l346 0 34 28 c19 15 52 42 73 59 21 18 47 33 58 33 13 0 43 29 84
80 35 44 70 80 77 80 8 0 12 -6 10 -12 -3 -7 -10 -13 -16 -13 -7 0 -12 -4 -13
-10 0 -5 -8 -19 -17 -29 -13 -14 -14 -20 -4 -23 6 -3 12 -12 12 -20 0 -14 -3
-14 -20 2 -16 15 -21 15 -33 4 -20 -21 -27 -45 -14 -58 16 -16 146 -14 153 2
3 8 -4 46 -15 85 -11 40 -17 73 -13 75 4 2 45 14 92 26 47 13 114 31 150 42
126 36 114 38 148 -33 17 -35 49 -94 71 -133 22 -38 55 -96 72 -127 l31 -56
114 1 c63 0 118 5 121 10 4 6 -5 7 -23 3 l-29 -6 25 14 c14 8 45 20 70 27 25
7 50 17 55 22 7 7 4 8 -7 4 -36 -13 -116 -19 -121 -10 -3 5 17 18 44 27 27 10
48 20 46 22 -2 3 -16 0 -31 -6 -43 -16 -58 -13 -54 13 3 20 24 35 72 51 10 4
16 10 12 14 -10 10 -75 9 -69 -2 3 -4 -3 -6 -13 -2 -11 3 -26 1 -34 -5 -12 -9
-11 -10 5 -4 16 5 17 4 8 -6 -10 -10 -16 -9 -30 3 -10 8 -26 18 -36 21 -32 12
-13 31 53 55 67 24 76 29 69 37 -3 2 -29 -4 -58 -15 -29 -11 -57 -17 -63 -14
-7 4 -8 2 -4 -4 9 -15 7 -15 -33 -1 -24 9 -29 14 -19 20 9 6 5 9 -14 9 -54 0
-27 25 52 49 44 13 80 28 80 32 0 12 0 12 -90 -20 -44 -16 -82 -26 -85 -22 -2
5 -17 6 -31 3 -17 -3 -25 -1 -21 5 8 12 -24 23 -69 23 -31 0 -54 15 -54 36 0
8 46 23 118 40 64 14 121 29 127 32 5 3 22 7 39 9 34 4 39 7 42 29 2 10 -3 14
-13 10 -45 -18 -63 -14 -23 4 51 23 45 22 -139 -26 l-133 -35 -40 40 c-37 39
-57 53 -43 31 3 -5 2 -10 -4 -10 -5 0 -13 5 -17 11 -4 7 -20 9 -39 6 -25 -4
-41 1 -67 20 -52 39 -105 63 -123 57 -17 -7 -95 14 -95 26 0 3 -6 14 -12 23
-20 25 -261 66 -273 47z"/>
</g>
</svg>
