<?xml version="1.0" standalone="no"?>
<!DOCTYPE svg PUBLIC "-//W3C//DTD SVG 20010904//EN"
 "http://www.w3.org/TR/2001/REC-SVG-20010904/DTD/svg10.dtd">
<svg version="1.0" xmlns="http://www.w3.org/2000/svg"
 width="120.000000pt" height="120.000000pt" viewBox="0 0 120.000000 120.000000"
 preserveAspectRatio="xMidYMid meet">

<g transform="translate(0.000000,120.000000) scale(0.100000,-0.100000)"
fill="#000000" stroke="none">
<path d="M638 1131 c10 -6 7 -12 -12 -24 -14 -10 -32 -17 -41 -17 -9 0 -13 -5
-10 -10 4 -6 -3 -26 -15 -44 -18 -30 -25 -34 -54 -31 -36 3 -39 0 -71 -79 -9
-22 -17 -60 -20 -85 -3 -40 -1 -48 21 -64 l25 -19 -6 35 c-7 37 6 89 29 119 7
10 53 30 102 44 82 24 94 25 154 14 82 -14 103 -28 140 -93 16 -28 30 -45 30
-36 0 32 -33 115 -56 140 -13 14 -24 31 -24 38 0 28 -41 79 -77 94 -39 17
-138 33 -115 18z"/>
<path d="M61 841 c-41 -41 -70 -204 -56 -316 l7 -57 44 6 c104 14 259 125 321
230 7 12 12 37 13 57 0 43 7 40 -165 65 -66 9 -125 21 -132 26 -8 6 -18 3 -32
-11z"/>
<path d="M558 783 c6 -2 18 -2 25 0 6 3 1 5 -13 5 -14 0 -19 -2 -12 -5z"/>
<path d="M802 734 c-12 -8 -22 -21 -22 -28 0 -17 48 -61 57 -53 3 4 0 7 -8 7
-10 1 -9 3 4 11 20 12 23 35 5 43 -7 3 -1 4 15 2 34 -4 35 7 2 22 -32 15 -26
15 -53 -4z"/>
<path d="M585 732 c-11 -2 -28 -11 -37 -20 -19 -16 -24 -52 -8 -52 6 0 10 9
10 20 0 10 10 24 21 31 18 9 27 7 51 -11 26 -19 29 -20 26 -5 -4 23 -38 43
-63 37z"/>
<path d="M570 675 c0 -19 4 -23 18 -18 30 11 33 15 21 29 -18 22 -39 17 -39
-11z"/>
<path d="M445 592 c2 -29 9 -60 14 -70 12 -19 5 42 -10 93 -6 23 -7 18 -4 -23z"/>
<path d="M661 581 l-21 -29 22 -14 23 -15 -33 -17 c-17 -9 -35 -16 -39 -15
-18 4 -31 -47 -26 -95 5 -47 4 -50 -10 -31 -8 11 -17 18 -19 15 -21 -33 -34
-70 -27 -81 5 -9 -2 -22 -23 -40 -38 -34 -33 -64 22 -146 40 -58 42 -73 11
-73 -10 0 -24 -6 -30 -14 -9 -11 -5 -15 20 -20 44 -9 99 -8 99 2 0 4 -6 14
-12 21 -11 11 -10 14 0 18 10 4 8 11 -9 29 l-22 24 24 0 c14 0 33 6 44 14 11
7 42 14 69 14 47 1 76 14 76 34 0 6 -13 8 -30 6 -24 -4 -30 -1 -30 13 0 10 9
23 20 29 14 8 19 17 15 30 -3 10 -1 21 5 25 6 3 8 10 5 15 -3 4 2 13 10 20 8
6 19 28 26 47 8 26 14 32 20 22 5 -8 9 -24 9 -36 0 -13 4 -23 9 -23 4 0 11 42
15 94 6 78 4 99 -10 130 -10 20 -21 36 -26 36 -12 0 -10 -28 3 -35 6 -4 8 -13
5 -20 -2 -7 0 -17 6 -23 17 -17 1 -44 -22 -37 -14 4 -20 2 -18 -6 3 -14 -38
-28 -73 -24 -13 1 -30 3 -36 4 -30 3 -10 21 25 22 l37 2 -40 7 c-47 7 -30 20
32 24 21 2 46 3 55 4 24 3 12 29 -15 35 -12 2 -31 8 -41 12 -13 6 -17 5 -13
-2 5 -7 -1 -9 -15 -5 -19 5 -20 7 -5 10 9 2 17 7 17 12 0 17 -22 22 -46 9 -36
-19 -43 -1 -11 27 18 15 23 24 13 24 -8 0 -24 -13 -35 -29z m8 -296 c17 -18
19 -25 8 -25 -8 0 -22 11 -31 25 -21 32 -8 32 23 0z m0 -66 c13 -17 21 -32 19
-34 -6 -6 -35 20 -47 43 -17 33 2 27 28 -9z"/>
<path d="M396 555 c-9 -13 -16 -30 -16 -38 0 -21 46 -59 66 -55 26 5 29 28 5
35 -16 4 -21 13 -21 39 0 42 -14 50 -34 19z"/>
<path d="M1056 558 c-15 -24 -24 -97 -14 -113 3 -6 -3 -37 -13 -70 -11 -36
-19 -90 -19 -134 l0 -74 26 24 c49 44 104 139 104 178 0 28 3 33 11 21 8 -11
9 -8 4 15 -4 17 -8 50 -10 75 -3 64 -3 67 -21 84 -22 23 -51 20 -68 -6z"/>
<path d="M510 290 c0 -5 5 -10 11 -10 5 0 7 5 4 10 -3 6 -8 10 -11 10 -2 0 -4
-4 -4 -10z"/>
<path d="M450 181 c0 -22 5 -43 10 -46 6 -4 10 12 10 39 0 25 -4 46 -10 46 -5
0 -10 -18 -10 -39z"/>
<path d="M456 34 c-5 -14 -4 -15 9 -4 17 14 19 20 6 20 -5 0 -12 -7 -15 -16z"/>
</g>
</svg>
